<?xml version="1.0" standalone="no"?>
<!DOCTYPE svg PUBLIC "-//W3C//DTD SVG 20010904//EN"
 "http://www.w3.org/TR/2001/REC-SVG-20010904/DTD/svg10.dtd">
<svg version="1.0" xmlns="http://www.w3.org/2000/svg"
 width="512.000000pt" height="512.000000pt" viewBox="0 0 512.000000 512.000000"
 preserveAspectRatio="xMidYMid meet">

<g transform="translate(0.000000,512.000000) scale(0.100000,-0.100000)"
fill="#000000" stroke="none">
<path d="M1566 4624 c-32 -8 -85 -28 -118 -46 -122 -65 -195 -153 -263 -317
-36 -87 -37 -88 -112 -137 -104 -68 -227 -200 -280 -300 -60 -114 -216 -494
-216 -527 -1 -60 81 -94 123 -51 10 10 55 109 100 219 117 285 150 344 240
434 135 135 278 199 466 208 141 7 232 -12 357 -75 75 -37 108 -62 178 -132
73 -72 94 -101 132 -180 76 -158 77 -165 77 -847 l0 -597 -49 74 c-178 267
-462 455 -778 516 -118 23 -340 23 -448 0 -168 -36 -325 -103 -451 -191 -35
-24 -64 -42 -64 -40 0 2 36 92 80 199 44 107 80 208 80 224 0 31 -38 72 -66
72 -29 0 -62 -24 -76 -54 -42 -87 -409 -990 -427 -1050 -136 -445 14 -953 368
-1249 106 -88 157 -121 274 -177 410 -196 901 -137 1262 150 267 213 445 573
445 901 l0 79 160 0 160 0 0 -79 c0 -344 194 -717 484 -930 481 -353 1142
-304 1562 116 90 90 196 240 243 345 123 275 143 580 57 854 -28 87 -678 1668
-722 1756 -67 132 -190 267 -311 342 -59 36 -62 41 -99 128 -70 166 -140 251
-262 316 -204 109 -449 70 -612 -97 -113 -115 -150 -216 -150 -410 l0 -123
-35 -48 c-44 -60 -108 -196 -130 -275 -9 -33 -19 -108 -22 -167 l-6 -108 -157
0 -157 0 -6 108 c-3 59 -13 134 -22 167 -22 80 -75 194 -125 266 l-40 59 0
122 c0 193 -37 294 -150 409 -131 133 -314 187 -494 143z m262 -164 c72 -32
119 -68 158 -122 41 -55 74 -150 74 -209 l0 -40 -32 25 c-48 36 -193 103 -268
123 -68 19 -321 26 -388 11 l-32 -8 24 48 c47 92 149 171 250 192 60 13 160 4
214 -20z m1757 -9 c71 -33 137 -96 171 -163 l24 -48 -32 8 c-67 15 -319 8
-387 -11 -77 -21 -222 -88 -269 -124 l-35 -26 6 66 c14 155 130 288 284 327
64 16 171 3 238 -29z m205 -371 c184 -63 332 -186 412 -343 26 -52 458 -1090
458 -1101 0 -2 -36 20 -80 50 -138 92 -284 151 -461 185 -93 18 -317 15 -422
-5 -314 -61 -602 -250 -775 -512 l-52 -78 0 604 c0 571 1 610 20 689 60 248
261 454 512 521 100 28 293 22 388 -10z m-1072 -1252 l-3 -363 -155 0 -155 0
-3 363 -2 362 160 0 160 0 -2 -362z m-1235 -132 c652 -195 958 -910 643 -1502
-147 -275 -410 -473 -715 -536 -124 -26 -356 -21 -466 10 -349 98 -609 332
-726 652 -49 136 -62 211 -62 365 0 207 45 372 149 547 57 95 218 264 306 321
206 134 364 178 618 173 143 -3 177 -7 253 -30z m2635 19 c355 -68 659 -325
783 -665 49 -136 62 -211 62 -365 0 -155 -13 -229 -63 -365 -102 -282 -336
-514 -622 -620 -130 -47 -177 -54 -358 -55 -195 0 -261 12 -416 78 -152 64
-314 191 -421 330 -242 314 -280 750 -97 1110 144 285 440 504 751 557 84 14
295 11 381 -5z m-1398 -615 l0 -210 -160 0 -160 0 0 210 0 210 160 0 160 0 0
-210z"/>
<path d="M1088 2550 c-357 -56 -620 -284 -725 -627 -24 -79 -26 -104 -26 -238
0 -135 2 -159 27 -240 84 -278 292 -495 559 -583 329 -109 673 -24 908 225
160 170 239 368 239 603 0 225 -80 425 -234 587 -165 175 -359 265 -593 277
-54 3 -124 1 -155 -4z m280 -166 c231 -51 434 -235 513 -464 l22 -65 -32 -78
c-82 -205 -243 -357 -448 -424 -57 -19 -107 -27 -190 -31 -141 -6 -231 13
-356 75 -75 38 -108 62 -178 132 -91 92 -138 163 -174 268 -23 65 -23 65 -5
119 121 352 481 550 848 468z m503 -959 c-71 -178 -198 -313 -366 -390 -101
-47 -186 -65 -301 -65 -216 0 -381 73 -531 234 -48 52 -83 102 -111 158 -69
140 -66 149 19 65 84 -83 137 -121 235 -171 207 -103 438 -118 660 -45 135 45
234 106 334 208 47 47 86 85 88 85 2 -1 -10 -37 -27 -79z"/>
<path d="M3802 2549 c-306 -39 -588 -263 -697 -553 -39 -103 -55 -195 -55
-311 0 -237 82 -438 248 -608 188 -192 459 -289 717 -257 353 44 638 284 741
625 25 81 27 105 27 240 0 135 -2 159 -27 240 -32 105 -96 233 -141 281 -39
41 -76 44 -110 9 -33 -32 -31 -67 4 -118 37 -55 69 -119 91 -183 18 -51 18
-53 -5 -117 -36 -105 -83 -176 -174 -268 -70 -70 -103 -94 -178 -132 -125 -62
-215 -81 -356 -75 -186 8 -339 74 -469 200 -78 77 -128 152 -169 255 l-32 78
22 65 c64 184 199 333 378 416 97 46 188 65 303 65 127 0 220 -22 336 -82 52
-27 104 -49 115 -49 27 0 69 44 69 72 0 37 -26 65 -96 104 -162 91 -356 127
-542 103z m-322 -1266 c100 -56 236 -100 349 -113 261 -29 541 74 721 267 56
59 62 64 56 38 -4 -17 -25 -67 -48 -113 -78 -158 -239 -299 -409 -357 -112
-37 -283 -46 -392 -20 -224 54 -414 214 -500 421 -43 103 -40 104 55 10 61
-59 119 -106 168 -133z"/>
</g>
</svg>
